<?xml version="1.0" encoding="UTF-8"?>
<svg xmlns="http://www.w3.org/2000/svg" viewBox="0 0 512 512" width="512" height="512">
  <defs>
    <linearGradient id="sky" x1="0" y1="0" x2="0" y2="1">
      <stop offset="0%" stop-color="#0a1220"/>
      <stop offset="60%" stop-color="#182538"/>
      <stop offset="100%" stop-color="#1f2f45"/>
    </linearGradient>
    <linearGradient id="water" x1="0" y1="0" x2="0" y2="1">
      <stop offset="0%" stop-color="#0e1824"/>
      <stop offset="100%" stop-color="#05080e"/>
    </linearGradient>
    <clipPath id="rounded">
      <rect width="512" height="512" rx="76" ry="76"/>
    </clipPath>
  </defs>

  <g clip-path="url(#rounded)">
    <rect width="512" height="512" fill="url(#sky)"/>

    <circle cx="432" cy="88" r="22" fill="#d8dce5" opacity="0.9"/>
    <circle cx="438" cy="82" r="19" fill="#182538"/>

    <g fill="#e8ecf5" opacity="0.6">
      <circle cx="60" cy="55" r="1.5"/>
      <circle cx="95" cy="90" r="1"/>
      <circle cx="280" cy="45" r="1.5"/>
      <circle cx="315" cy="80" r="1"/>
      <circle cx="470" cy="150" r="1"/>
      <circle cx="380" cy="40" r="1"/>
      <circle cx="160" cy="62" r="1"/>
    </g>

    <g fill="#1a2536">
      <rect x="20" y="230" width="35" height="140"/>
      <rect x="52" y="210" width="28" height="160"/>
      <rect x="78" y="250" width="22" height="120"/>
      <rect x="98" y="225" width="32" height="145"/>
      <rect x="195" y="145" width="30" height="225"/>
      <rect x="225" y="220" width="22" height="150"/>
      <rect x="245" y="200" width="26" height="170"/>
      <rect x="270" y="235" width="24" height="135"/>
      <rect x="295" y="215" width="28" height="155"/>
      <rect x="321" y="240" width="20" height="130"/>
    </g>

    <g fill="#25354a">
      <rect x="30" y="255" width="20" height="115"/>
      <rect x="60" y="240" width="18" height="130"/>
      <rect x="85" y="275" width="16" height="95"/>
      <rect x="148" y="195" width="22" height="175"/>
      <polygon points="148,195 159,175 170,195"/>
      <rect x="172" y="205" width="22" height="165"/>
      <polygon points="172,205 183,185 194,205"/>
      <rect x="230" y="260" width="16" height="110"/>
      <rect x="260" y="245" width="20" height="125"/>
      <rect x="290" y="265" width="18" height="105"/>
    </g>

    <g fill="#6a82a5" opacity="0.55">
      <rect x="201" y="165" width="3" height="5"/>
      <rect x="208" y="165" width="3" height="5"/>
      <rect x="215" y="165" width="3" height="5"/>
      <rect x="201" y="180" width="3" height="5"/>
      <rect x="208" y="180" width="3" height="5"/>
      <rect x="215" y="180" width="3" height="5"/>
      <rect x="201" y="195" width="3" height="5"/>
      <rect x="215" y="195" width="3" height="5"/>
      <rect x="152" y="220" width="3" height="4"/>
      <rect x="160" y="220" width="3" height="4"/>
      <rect x="152" y="232" width="3" height="4"/>
      <rect x="160" y="232" width="3" height="4"/>
      <rect x="176" y="232" width="3" height="4"/>
      <rect x="184" y="232" width="3" height="4"/>
      <rect x="250" y="220" width="3" height="4"/>
      <rect x="258" y="220" width="3" height="4"/>
      <rect x="297" y="240" width="3" height="4"/>
      <rect x="305" y="240" width="3" height="4"/>
    </g>

    <line x1="0" y1="380" x2="150" y2="100" stroke="#6d8db0" stroke-width="3" stroke-linecap="round"/>
    <path d="M 150,100 Q 257,305 365,100" stroke="#6d8db0" stroke-width="3" fill="none" stroke-linecap="round"/>
    <line x1="365" y1="100" x2="512" y2="380" stroke="#6d8db0" stroke-width="3" stroke-linecap="round"/>

    <g stroke="#5a7595" stroke-width="1.6" opacity="0.95" stroke-linecap="round">
      <line x1="171" y1="133" x2="171" y2="360"/>
      <line x1="193" y1="162" x2="193" y2="360"/>
      <line x1="214" y1="183" x2="214" y2="360"/>
      <line x1="236" y1="196" x2="236" y2="360"/>
      <line x1="257" y1="200" x2="257" y2="360"/>
      <line x1="279" y1="196" x2="279" y2="360"/>
      <line x1="300" y1="183" x2="300" y2="360"/>
      <line x1="322" y1="162" x2="322" y2="360"/>
      <line x1="343" y1="133" x2="343" y2="360"/>
    </g>

    <rect x="0" y="360" width="512" height="10" fill="#3a4d68"/>
    <rect x="0" y="370" width="512" height="3" fill="#25354a"/>

    <g>
      <rect x="130" y="96" width="40" height="264" fill="#4a617c"/>
      <g stroke="#253545" stroke-width="1.8" fill="none" opacity="0.9">
        <path d="M130,124 L170,164 M170,124 L130,164"/>
        <path d="M130,184 L170,224 M170,184 L130,224"/>
        <path d="M130,244 L170,284 M170,244 L130,284"/>
        <path d="M130,304 L170,344 M170,304 L130,344"/>
      </g>
      <rect x="124" y="88" width="52" height="10" fill="#5d7a94"/>
      <rect x="134" y="80" width="32" height="9" fill="#4a617c"/>
    </g>

    <g>
      <rect x="345" y="96" width="40" height="264" fill="#4a617c"/>
      <g stroke="#253545" stroke-width="1.8" fill="none" opacity="0.9">
        <path d="M345,124 L385,164 M385,124 L345,164"/>
        <path d="M345,184 L385,224 M385,184 L345,224"/>
        <path d="M345,244 L385,284 M385,244 L345,284"/>
        <path d="M345,304 L385,344 M385,304 L345,344"/>
      </g>
      <rect x="339" y="88" width="52" height="10" fill="#5d7a94"/>
      <rect x="349" y="80" width="32" height="9" fill="#4a617c"/>
    </g>

    <rect x="0" y="373" width="512" height="139" fill="url(#water)"/>

    <g opacity="0.22">
      <rect x="130" y="373" width="40" height="28" fill="#4a617c"/>
      <rect x="345" y="373" width="40" height="28" fill="#4a617c"/>
    </g>

    <g stroke="#1c2b3d" stroke-width="2" fill="none" opacity="0.75" stroke-linecap="round">
      <path d="M30,410 Q60,405 90,410 T150,410"/>
      <path d="M180,430 Q210,425 240,430 T300,430"/>
      <path d="M320,420 Q350,415 380,420 T440,420"/>
      <path d="M20,452 Q50,447 80,452 T140,452"/>
      <path d="M200,464 Q230,459 260,464 T320,464"/>
      <path d="M380,456 Q410,451 440,456 T490,456"/>
      <path d="M50,484 Q80,479 110,484 T170,484"/>
      <path d="M250,494 Q280,489 310,494 T370,494"/>
    </g>
  </g>
</svg>
